<svg xmlns="http://www.w3.org/2000/svg" width="300" height="300"><rect width="300" height="300" fill="#f4d9df"/><path d="M20 245Q150 160 280 245V300H20Z" fill="#8fc47f"/><circle cx="105" cy="120" r="48" fill="#f2c49a"/><circle cx="195" cy="120" r="48" fill="#efc19a"/><path d="M55 280Q65 168 105 165Q145 170 153 280" fill="#f7f4ee"/><path d="M148 280Q155 168 195 165Q240 170 250 280" fill="#6c345d"/><path d="M55 112Q65 52 105 60Q150 55 153 118" fill="#5c2f24"/><path d="M150 110Q158 55 195 60Q240 58 243 115" fill="#5a3825"/><path d="M70 65L105 28L140 65" fill="#d7dbe6"/><path d="M160 55L180 28L195 48L210 28L232 58" fill="#e6c34d"/><path d="M105 205Q150 240 195 205" stroke="#d64f76" stroke-width="12" fill="none"/><text x="150" y="290" text-anchor="middle" font-size="24" font-family="Georgia" fill="#5b2b47">Julia &amp; Kyle</text></svg>